<svg width="250" height="175" viewBox="0 0 250 175" fill="none" xmlns="http://www.w3.org/2000/svg">
<path d="M98.6107 95.5955V95.1688H99.1308C99.9042 95.1688 100.424 94.9954 100.598 94.6487C100.851 94.302 100.944 93.7019 100.944 92.7418V80.3805H95.157V92.7418C95.157 93.862 95.3304 94.4754 95.5837 94.7287C95.8371 94.9821 96.2771 95.1554 96.9705 95.1554H97.4906V95.5821H88.9297V95.1554H89.4497C90.2232 95.1554 90.6632 94.9821 90.9166 94.7287C91.0899 94.4754 91.2633 93.7819 91.2633 92.7418V82.1007C91.2633 81.0606 91.1833 80.4605 90.9166 80.1939C90.7432 79.8472 90.2232 79.6738 89.4497 79.6738H88.9297V79.2471H107.172V79.6738H106.745C105.971 79.6738 105.451 79.8472 105.185 80.1939C104.931 80.4472 104.838 81.1406 104.838 82.1007V92.7418C104.838 93.862 105.011 94.4754 105.265 94.7287C105.518 94.9821 106.038 95.1554 106.732 95.1554H107.158V95.5821H98.6107V95.5955ZM117.813 95.5955V95.1688H118.333C119.106 95.1688 119.626 94.9954 119.8 94.6487C119.973 94.302 120.053 93.7019 120.053 92.7418V80.3805H114.346V92.7418C114.346 93.862 114.426 94.4754 114.692 94.7287C114.946 94.9821 115.466 95.1554 116.159 95.1554H116.586V95.5821H108.105V95.1554H108.625C109.318 95.1554 109.839 94.9821 110.012 94.7287C110.265 94.4754 110.359 93.7819 110.359 92.7418V82.1007C110.359 81.0606 110.279 80.4605 110.105 80.1939C109.852 79.8472 109.412 79.6738 108.638 79.6738H108.118V79.2471H126.28V79.6738H125.854C125.08 79.6738 124.64 79.8472 124.387 80.1939C124.133 80.4472 124.04 81.1406 124.04 82.1007V92.7418C124.04 93.862 124.12 94.4754 124.387 94.7287C124.64 94.9821 125.16 95.1554 125.947 95.1554H126.294V95.5821H117.813V95.5955ZM128.094 78.9004V84.1809H128.521C128.694 82.8875 129.294 81.8474 130.161 81.074C131.027 80.3005 132.148 79.9538 133.361 79.9538C134.921 79.9538 136.135 80.5539 136.908 81.7674C137.775 82.9808 138.202 84.621 138.202 86.7012H131.734V87.7413H138.215C138.215 90.1682 137.788 91.8884 137.001 93.1019C136.135 94.3153 134.921 94.9154 133.281 94.9154C132.241 94.9154 131.467 94.7421 130.774 94.3953C130.174 94.0486 129.387 93.3552 128.521 92.4885L127.92 92.9152C128.961 94.1287 129.907 94.9954 130.854 95.3421C131.801 95.7688 132.934 95.9422 134.134 95.9422C136.561 95.9422 138.548 95.1688 140.188 93.5153C141.749 91.9551 142.522 89.8882 142.522 87.4613C142.522 85.6478 142.095 84.0876 141.309 82.7008C140.442 81.4073 139.402 80.4472 138.108 79.8472C136.895 79.2471 135.601 78.9004 134.308 78.9004C133.268 78.9004 132.054 79.1537 130.761 79.5938C130.161 79.8472 129.721 79.9405 129.547 79.9405C129.027 79.9405 128.681 79.5938 128.507 78.9004H128.094V78.9004ZM149.976 79.2471H158.364V79.6738C157.497 79.7538 156.897 79.8472 156.63 80.1005C156.377 80.2739 156.203 80.7939 156.11 81.5673C158.017 81.5673 159.39 81.7407 160.351 82.1674C161.297 82.5941 162.164 83.2875 162.857 84.1543C163.551 85.021 163.898 86.0611 163.898 87.2613C163.898 88.8214 163.297 90.1149 162.164 91.3284C161.044 92.5418 158.964 93.0619 156.11 93.0619C156.11 93.6619 156.19 94.102 156.363 94.3554C156.443 94.6087 156.617 94.7821 156.883 94.8754C157.137 94.9554 157.657 95.0488 158.35 95.1288V95.5555H149.963V95.1288C150.91 95.0488 151.603 94.9554 151.87 94.6087C152.123 94.3553 152.216 93.8353 152.216 93.0485C150.309 93.0485 148.843 92.7952 147.803 92.2751C146.682 91.7551 145.896 91.0617 145.296 90.1949C144.776 89.2481 144.522 88.288 144.522 87.2613C144.522 86.0478 144.869 85.0077 145.562 84.0609C146.256 83.1142 147.029 82.5008 148.069 82.0741C149.109 81.7274 150.496 81.554 152.216 81.554C152.216 80.8606 152.043 80.3405 151.79 80.0872C151.536 79.8338 150.923 79.7405 149.976 79.6605V79.2471V79.2471ZM156.123 92.2218C156.99 92.2218 157.59 92.1418 158.11 91.8751C158.63 91.6217 159.057 91.1017 159.404 90.3149C159.75 89.5415 159.924 88.5014 159.924 87.1146C159.924 86.0745 159.75 85.1277 159.404 84.4343C159.15 83.6609 158.71 83.1408 158.19 82.8741C157.764 82.6208 157.07 82.4474 156.11 82.4474V92.2218H156.123ZM152.23 82.4474C151.19 82.5274 150.416 82.7008 149.976 83.0475C149.549 83.3942 149.203 83.9143 148.856 84.6077C148.603 85.3811 148.509 86.3412 148.509 87.4613C148.509 88.7548 148.683 89.7149 148.936 90.3949C149.283 91.0883 149.709 91.6084 150.229 91.7817C150.75 92.0351 151.443 92.2084 152.216 92.2084V82.4474H152.23Z" fill="#E52E1E"/>
<path fill-rule="evenodd" clip-rule="evenodd" d="M189.728 60.3132L174.686 44.3115H250.001L186.621 110.558H155.751L204.263 60.3132H189.728Z" fill="#1C3798"/>
<path fill-rule="evenodd" clip-rule="evenodd" d="M60.3663 114.612L75.6746 130.707H0L63.3933 64.3799H93.9166L46.0982 114.612H60.3663Z" fill="#1C3798"/>
<path fill-rule="evenodd" clip-rule="evenodd" d="M132.841 134.094H163.364L124.8 174.044L60.7266 106.931L76.2882 90.9424L125.147 142.134L132.841 134.094Z" fill="#E52E1E"/>
<path fill-rule="evenodd" clip-rule="evenodd" d="M117.185 40.5643H86.5684L124.799 0L189.219 67.7138L173.564 83.7955L124.799 32.3501L117.185 40.5643Z" fill="#E52E1E"/>
</svg>
