<svg width="500" height="349" viewBox="0 0 500 349" fill="none" xmlns="http://www.w3.org/2000/svg">
<path d="M197.183 191.332V190.478H198.224C199.772 190.478 200.812 190.131 201.159 189.437C201.666 188.743 201.853 187.542 201.853 185.621V160.88H190.27V185.621C190.27 187.862 190.617 189.09 191.124 189.597C191.631 190.104 192.512 190.451 193.9 190.451H194.941V191.305H177.807V190.451H178.848C180.395 190.451 181.276 190.104 181.783 189.597C182.13 189.09 182.477 187.702 182.477 185.621V164.323C182.477 162.241 182.317 161.04 181.783 160.506C181.436 159.812 180.395 159.465 178.848 159.465H177.807V158.611H214.317V159.465H213.463C211.915 159.465 210.874 159.812 210.34 160.506C209.833 161.013 209.646 162.401 209.646 164.323V185.621C209.646 187.862 209.993 189.09 210.501 189.597C211.008 190.104 212.048 190.451 213.436 190.451H214.29V191.305H197.183V191.332ZM235.615 191.332V190.478H236.656C238.204 190.478 239.244 190.131 239.591 189.437C239.938 188.743 240.098 187.542 240.098 185.621V160.88H228.676V185.621C228.676 187.862 228.836 189.09 229.37 189.597C229.877 190.104 230.918 190.451 232.305 190.451H233.159V191.305H216.185V190.451H217.226C218.614 190.451 219.655 190.104 220.002 189.597C220.509 189.09 220.696 187.702 220.696 185.621V164.323C220.696 162.241 220.536 161.04 220.189 160.506C219.681 159.812 218.801 159.465 217.253 159.465H216.212V158.611H252.562V159.465H251.708C250.16 159.465 249.279 159.812 248.772 160.506C248.265 161.013 248.078 162.401 248.078 164.323V185.621C248.078 187.862 248.239 189.09 248.772 189.597C249.279 190.104 250.32 190.451 251.895 190.451H252.589V191.305H235.615V191.332ZM256.192 157.917V168.486H257.046C257.393 165.897 258.594 163.816 260.329 162.268C262.063 160.72 264.305 160.026 266.734 160.026C269.857 160.026 272.285 161.227 273.833 163.656C275.568 166.084 276.422 169.367 276.422 173.53H263.478V175.612H276.449C276.449 180.47 275.595 183.912 274.02 186.341C272.285 188.77 269.857 189.971 266.574 189.971C264.492 189.971 262.944 189.624 261.556 188.93C260.355 188.236 258.781 186.848 257.046 185.113L255.845 185.967C257.927 188.396 259.822 190.131 261.716 190.825C263.611 191.679 265.88 192.026 268.282 192.026C273.139 192.026 277.116 190.478 280.399 187.168C283.521 184.046 285.069 179.909 285.069 175.052C285.069 171.422 284.215 168.299 282.641 165.524C280.906 162.935 278.824 161.013 276.235 159.812C273.807 158.611 271.218 157.917 268.629 157.917C266.547 157.917 264.118 158.425 261.53 159.305C260.329 159.812 259.448 159.999 259.101 159.999C258.06 159.999 257.366 159.305 257.019 157.917H256.192ZM299.988 158.611H316.776V159.465C315.041 159.626 313.84 159.812 313.306 160.319C312.799 160.666 312.452 161.707 312.265 163.255C316.082 163.255 318.831 163.602 320.752 164.456C322.647 165.31 324.382 166.698 325.77 168.433C327.158 170.168 327.851 172.249 327.851 174.651C327.851 177.774 326.65 180.363 324.382 182.792C322.14 185.22 317.977 186.261 312.265 186.261C312.265 187.462 312.425 188.343 312.772 188.85C312.932 189.357 313.279 189.704 313.813 189.891C314.32 190.051 315.361 190.238 316.749 190.398V191.252H299.962V190.398C301.857 190.238 303.244 190.051 303.778 189.357C304.285 188.85 304.472 187.809 304.472 186.234C300.656 186.234 297.72 185.727 295.638 184.686C293.396 183.646 291.822 182.258 290.621 180.523C289.58 178.628 289.073 176.706 289.073 174.651C289.073 172.223 289.766 170.141 291.154 168.246C292.542 166.351 294.09 165.123 296.172 164.269C298.254 163.576 301.029 163.229 304.472 163.229C304.472 161.841 304.125 160.8 303.618 160.293C303.111 159.786 301.883 159.599 299.988 159.439V158.611ZM312.292 184.58C314.027 184.58 315.228 184.42 316.269 183.886C317.309 183.379 318.163 182.338 318.857 180.763C319.551 179.215 319.898 177.133 319.898 174.358C319.898 172.276 319.551 170.381 318.857 168.993C318.35 167.445 317.47 166.405 316.429 165.871C315.575 165.364 314.187 165.017 312.265 165.017V184.58H312.292ZM304.499 165.017C302.417 165.177 300.869 165.524 299.988 166.218C299.134 166.912 298.44 167.952 297.746 169.34C297.239 170.888 297.053 172.81 297.053 175.052C297.053 177.641 297.399 179.562 297.907 180.923C298.6 182.311 299.455 183.352 300.495 183.699C301.536 184.206 302.924 184.553 304.472 184.553V165.017H304.499Z" fill="#E52E1E"/>
<path fill-rule="evenodd" clip-rule="evenodd" d="M379.55 120.714L349.445 88.6873H500.184L373.332 221.278H311.547L408.641 120.714H379.55Z" fill="#1C3798"/>
<path fill-rule="evenodd" clip-rule="evenodd" d="M120.639 229.391L151.278 261.604H-0.181641L126.697 128.854H187.788L92.0818 229.391H120.639Z" fill="#1C3798"/>
<path fill-rule="evenodd" clip-rule="evenodd" d="M265.693 268.383H326.784L249.599 348.343L121.359 214.018L152.505 182.018L250.293 284.476L265.693 268.383Z" fill="#E52E1E"/>
<path fill-rule="evenodd" clip-rule="evenodd" d="M234.36 81.1876H173.082L249.599 0L378.533 135.526L347.2 167.713L249.599 64.7472L234.36 81.1876Z" fill="#E52E1E"/>
</svg>
