<svg width="150" height="161" viewBox="0 0 150 161" fill="none" xmlns="http://www.w3.org/2000/svg">
<path fill-rule="evenodd" clip-rule="evenodd" d="M108.085 115.979C100.375 121.999 90.674 125.585 80.1349 125.585C69.677 125.585 60.0441 122.054 52.3638 116.117L58.1063 110.375C73.3107 94.3623 82.9151 94.1565 102.544 110.438L108.085 115.979ZM58.0897 49.4626C74.864 65.3123 84.516 65.09 102.587 49.2847L107.852 44.108C100.181 38.1971 90.5683 34.6817 80.1349 34.6817C69.7828 34.6817 60.239 38.1426 52.5975 43.9703L58.0897 49.4626ZM49.8232 57.7175L44.2897 52.184C38.27 59.8933 34.683 69.5945 34.683 80.1336C34.683 90.5669 38.1984 100.179 44.1093 107.851L49.7737 102.186C65.6234 85.4119 65.6285 75.7885 49.8232 57.7175ZM116.298 107.671L110.795 102.168C94.7826 86.9639 94.4701 77.3583 110.752 57.7295L116.119 52.3625C122.055 60.0428 125.587 69.6757 125.587 80.1336C125.587 90.4857 122.126 100.029 116.298 107.671ZM135.809 80.1336C135.809 110.881 110.883 135.808 80.1349 135.808C49.387 135.808 24.4609 110.881 24.4609 80.1336C24.4609 49.3857 49.387 24.4596 80.1349 24.4596C110.883 24.4596 135.809 49.3857 135.809 80.1336Z" fill="white"/>
<path fill-rule="evenodd" clip-rule="evenodd" d="M112.475 116.248L109.878 118.276C101.675 124.681 91.3466 128.499 80.1349 128.499C69.0097 128.499 58.7544 124.74 50.5818 118.423L47.9621 116.398L56.0194 108.341C63.7038 100.254 70.6353 95.4034 78.6582 95.3823C86.5433 95.3614 94.5651 100.034 104.404 108.195L104.509 108.282L112.475 116.248ZM58.1063 110.375L52.3638 116.117C53.1417 116.719 53.9396 117.295 54.7563 117.846C62.0038 122.733 70.7362 125.585 80.1349 125.585C89.6155 125.585 98.4181 122.683 105.703 117.718C106.516 117.163 107.31 116.583 108.085 115.979L102.544 110.438C82.9151 94.1565 73.3107 94.3623 58.1063 110.375ZM56.0584 51.5523L48.1804 43.6743L50.8304 41.6533C58.962 35.4518 69.1224 31.7678 80.1349 31.7678C91.234 31.7678 101.467 35.5099 109.63 41.7997L112.28 43.8409L104.569 51.4221L104.505 51.4781C95.4228 59.422 87.7856 64.0997 79.8736 64.1582C71.8975 64.2171 64.5622 59.5873 56.0884 51.5806L56.0584 51.5523ZM51.9525 55.7259L52.0166 55.7991C59.966 64.8881 64.591 72.5258 64.583 80.4411C64.575 88.4018 59.8899 95.7227 51.8917 104.187L51.8634 104.217L43.825 112.256L41.801 109.629C35.5112 101.466 31.7691 91.2327 31.7691 80.1336C31.7691 68.9219 35.5875 58.5939 41.993 50.3906L44.0206 47.7939L51.9525 55.7259ZM110.795 102.168C94.7826 86.9639 94.4701 77.3583 110.752 57.7295L116.119 52.3625C116.72 53.1404 117.297 53.9382 117.847 54.755C122.734 62.0025 125.587 70.7349 125.587 80.1336C125.587 89.4256 122.798 98.0664 118.013 105.265C117.467 106.086 116.895 106.889 116.298 107.671L110.795 102.168ZM108.761 104.255L116.594 112.088L118.615 109.438C124.817 101.307 128.501 91.1461 128.501 80.1336C128.501 69.0084 124.741 58.7531 118.424 50.5805L116.4 47.9607L108.595 55.7649L108.509 55.8691C100.345 65.7118 95.6973 73.7372 95.7493 81.6272C95.8021 89.6461 100.677 96.5742 108.761 104.255ZM58.0897 49.4626C74.864 65.3123 84.516 65.09 102.587 49.2847L107.852 44.108C107.072 43.5069 106.272 42.9307 105.453 42.3803C98.2172 37.5185 89.5074 34.6817 80.1349 34.6817C70.8429 34.6817 62.2022 37.47 55.0037 42.2556C54.1825 42.8016 53.38 43.3736 52.5975 43.9703L58.0897 49.4626ZM44.2897 52.184C43.6851 52.9583 43.1051 53.7527 42.5507 54.566C37.5857 61.8504 34.683 70.653 34.683 80.1336C34.683 89.5075 37.5208 98.2187 42.384 105.455C42.9336 106.273 43.5091 107.072 44.1093 107.851L49.7737 102.186C65.6234 85.4119 65.6285 75.7885 49.8232 57.7175L44.2897 52.184ZM80.1349 132.894C109.273 132.894 132.895 109.272 132.895 80.1336C132.895 50.995 109.273 27.3736 80.1349 27.3736C50.9964 27.3736 27.3749 50.995 27.3749 80.1336C27.3749 109.272 50.9964 132.894 80.1349 132.894ZM80.1349 135.808C110.883 135.808 135.809 110.881 135.809 80.1336C135.809 49.3857 110.883 24.4596 80.1349 24.4596C49.387 24.4596 24.4609 49.3857 24.4609 80.1336C24.4609 110.881 49.387 135.808 80.1349 135.808Z" fill="white"/>
<path fill-rule="evenodd" clip-rule="evenodd" d="M130.319 119.38C128.998 121.066 127.595 122.684 126.114 124.228C125.418 124.954 124.705 125.662 123.977 126.354C112.692 137.061 97.4896 143.68 80.7424 143.837C80.3412 143.841 79.9398 143.841 79.5382 143.837C69.2434 143.743 59.5321 141.206 50.9554 136.779L43.4384 151.372L43.4428 151.375C48.3651 153.91 53.5201 155.919 58.8225 157.382C65.3771 159.191 72.1568 160.163 79.0004 160.26C91.3819 160.435 103.636 157.739 114.8 152.382C125.964 147.025 135.735 139.154 143.345 129.386C145.818 126.213 148.041 122.867 150 119.38H130.319ZM80.134 16.4283C100.514 16.4283 118.658 25.9979 130.319 40.8885H150C147.248 35.99 143.98 31.3783 140.24 27.1362C132.05 17.8484 121.82 10.5848 110.351 5.91552C104.012 3.33467 97.3901 1.58521 90.6495 0.692951C85.195 -0.0290673 79.6627 -0.189769 74.1398 0.224517L75.3685 16.6039C76.9418 16.4876 78.531 16.4283 80.134 16.4283ZM42.3524 9.44783C46.9409 6.99014 51.7965 4.96618 56.8645 3.43074L61.628 19.1534C57.6081 20.3713 53.7542 21.9773 50.1091 23.9297L42.3524 9.44783ZM39.7259 30.8806L29.2968 18.1872C25.2415 21.5191 21.5191 25.2414 18.1872 29.2967L30.8807 39.7259C33.5334 36.4973 36.4973 33.5333 39.7259 30.8806ZM23.9298 50.1091L9.44789 42.3523C6.9902 46.9408 4.96624 51.7965 3.4308 56.8644L19.1534 61.6279C20.3713 57.608 21.9774 53.7542 23.9298 50.1091ZM0 80.134C0 77.4827 0.128751 74.8616 0.380343 72.2764L16.7315 73.8677C16.5313 75.9249 16.4284 78.0149 16.4284 80.134C16.4284 82.253 16.5313 84.3431 16.7315 86.4002L0.380342 87.9915C0.128751 85.4063 0 82.7852 0 80.134ZM19.1534 98.64L3.4308 103.404C4.96624 108.471 6.9902 113.327 9.44789 117.916L23.9298 110.159C21.9774 106.514 20.3713 102.66 19.1534 98.64ZM30.8807 120.542L18.1872 130.971C21.5191 135.027 25.2415 138.749 29.2968 142.081L39.7259 129.387C36.4973 126.735 33.5334 123.771 30.8807 120.542Z" fill="url(#paint0_radial_909_1005)"/>
<defs>
<radialGradient id="paint0_radial_909_1005" cx="0" cy="0" r="1" gradientUnits="userSpaceOnUse" gradientTransform="translate(120.84 22.087) rotate(83.4917) scale(103.068 194.84)">
<stop offset="0.133874" stop-color="#FEE600"/>
<stop offset="0.972953" stop-color="#FF6800"/>
</radialGradient>
</defs>
</svg>
