<svg width="430" height="460" viewBox="0 0 430 460" fill="none" xmlns="http://www.w3.org/2000/svg">
<path fill-rule="evenodd" clip-rule="evenodd" d="M309.841 332.761C287.741 350.018 259.93 360.3 229.718 360.3C199.739 360.3 172.125 350.176 150.108 333.159L166.57 316.697C210.156 270.794 237.688 270.204 293.957 316.878L309.841 332.761ZM166.522 142.081C214.608 187.517 242.278 186.88 294.081 141.572L309.174 126.732C287.182 109.787 259.627 99.7096 229.718 99.7096C200.042 99.7096 172.684 109.631 150.778 126.337L166.522 142.081ZM142.825 165.746L126.962 149.883C109.706 171.983 99.423 199.793 99.423 230.005C99.423 259.914 109.5 287.469 126.445 309.46L142.683 293.222C188.119 245.136 188.133 217.549 142.825 165.746ZM333.386 308.946L317.612 293.171C271.708 249.585 270.813 222.049 317.487 165.78L332.872 150.395C349.889 172.411 360.014 200.026 360.014 230.005C360.014 259.681 350.093 287.04 333.386 308.946ZM389.317 230.005C389.317 318.149 317.862 389.604 229.718 389.604C141.574 389.604 70.1196 318.149 70.1196 230.005C70.1196 141.861 141.574 70.4062 229.718 70.4062C317.862 70.4062 389.317 141.861 389.317 230.005Z" fill="white"/>
<path fill-rule="evenodd" clip-rule="evenodd" d="M322.425 333.533L314.982 339.345C291.465 357.708 261.859 368.654 229.718 368.654C197.826 368.654 168.428 357.876 145 339.768L137.49 333.964L160.587 310.866C182.616 287.682 202.486 273.779 225.485 273.718C248.089 273.658 271.085 287.053 299.29 310.449L299.589 310.697L322.425 333.533ZM166.57 316.697L150.108 333.159C152.338 334.882 154.625 336.535 156.966 338.114C177.743 352.123 202.775 360.3 229.718 360.3C256.896 360.3 282.13 351.98 303.012 337.746C305.344 336.157 307.621 334.494 309.841 332.761L293.957 316.878C237.688 270.204 210.156 270.794 166.57 316.697ZM160.699 148.072L138.116 125.488L145.712 119.695C169.023 101.917 198.149 91.3563 229.718 91.3563C261.536 91.3563 290.871 102.084 314.272 120.115L321.867 125.966L299.764 147.699L299.581 147.859C273.544 170.632 251.65 184.041 228.969 184.209C206.104 184.378 185.077 171.106 160.785 148.153L160.699 148.072ZM148.929 160.036L149.113 160.246C171.901 186.301 185.159 208.196 185.136 230.886C185.113 253.707 171.683 274.694 148.755 298.959L148.673 299.045L125.63 322.089L119.828 314.559C101.797 291.158 91.0696 261.822 91.0696 230.005C91.0696 197.865 102.016 168.258 120.378 144.742L126.191 137.298L148.929 160.036ZM317.612 293.171C271.708 249.585 270.813 222.049 317.487 165.78L332.872 150.395C334.596 152.624 336.248 154.912 337.827 157.253C351.836 178.029 360.014 203.062 360.014 230.005C360.014 256.642 352.021 281.412 338.302 302.048C336.737 304.402 335.097 306.702 333.386 308.946L317.612 293.171ZM311.781 299.153L334.235 321.608L340.029 314.011C357.806 290.701 368.367 261.574 368.367 230.005C368.367 198.113 357.589 168.714 339.481 145.286L333.677 137.776L311.305 160.148L311.057 160.447C287.653 188.662 274.33 211.669 274.48 234.287C274.631 257.274 288.607 277.135 311.781 299.153ZM166.522 142.081C214.608 187.517 242.278 186.88 294.081 141.572L309.174 126.732C306.938 125.009 304.644 123.357 302.296 121.779C281.554 107.842 256.586 99.7096 229.718 99.7096C203.081 99.7096 178.311 107.703 157.676 121.421C155.321 122.987 153.021 124.626 150.778 126.337L166.522 142.081ZM126.962 149.883C125.229 152.103 123.566 154.38 121.977 156.711C107.744 177.593 99.423 202.827 99.423 230.005C99.423 256.877 107.558 281.849 121.499 302.593C123.075 304.937 124.724 307.227 126.445 309.46L142.683 293.222C188.119 245.136 188.133 217.549 142.825 165.746L126.962 149.883ZM229.718 381.25C313.249 381.25 380.964 313.536 380.964 230.005C380.964 146.474 313.249 78.7596 229.718 78.7596C146.188 78.7596 78.473 146.474 78.473 230.005C78.473 313.536 146.188 381.25 229.718 381.25ZM229.718 389.604C317.862 389.604 389.317 318.149 389.317 230.005C389.317 141.861 317.862 70.4062 229.718 70.4062C141.574 70.4062 70.1196 141.861 70.1196 230.005C70.1196 318.149 141.574 389.604 229.718 389.604Z" fill="white"/>
<path fill-rule="evenodd" clip-rule="evenodd" d="M373.581 342.511C369.795 347.345 365.771 351.984 361.526 356.409C359.531 358.489 357.488 360.521 355.399 362.502C323.05 393.198 279.47 412.172 231.462 412.621C230.311 412.632 229.161 412.632 228.009 412.621C198.498 412.351 170.659 405.08 146.072 392.39L124.524 434.223L124.536 434.229C138.647 441.497 153.424 447.258 168.625 451.451C187.414 456.635 206.85 459.423 226.468 459.701C261.961 460.203 297.088 452.473 329.092 437.117C361.096 421.761 389.106 399.197 410.923 371.197C418.012 362.099 424.384 352.507 430 342.511H373.581ZM229.718 47.3832C288.139 47.3832 340.154 74.8158 373.582 117.502H430C422.112 103.46 412.743 90.2398 402.021 78.0791C378.544 51.454 349.217 30.6317 316.34 17.2464C298.168 9.84796 279.185 4.83283 259.862 2.27503C244.226 0.205248 228.367 -0.255429 212.534 0.932189L216.056 47.8864C220.566 47.5529 225.122 47.3832 229.718 47.3832ZM121.41 27.3723C134.564 20.327 148.483 14.525 163.011 10.1234L176.667 55.1949C165.143 58.6862 154.095 63.2903 143.646 68.8871L121.41 27.3723ZM113.881 88.813L83.984 52.4251C72.3588 61.9766 61.6882 72.6472 52.1367 84.2724L88.5246 114.169C96.129 104.914 104.626 96.4174 113.881 88.813ZM68.5987 143.935L27.084 121.699C20.0386 134.852 14.2366 148.772 9.83495 163.3L54.9065 176.955C58.3978 165.432 63.0019 154.384 68.5987 143.935ZM0 230.006C0 222.406 0.369087 214.892 1.09032 207.481L47.9636 212.043C47.3897 217.94 47.0947 223.931 47.0947 230.006C47.0947 236.08 47.3897 242.072 47.9636 247.969L1.09031 252.531C0.369087 245.12 0 237.606 0 230.006ZM54.9065 283.057L9.83495 296.712C14.2366 311.24 20.0386 325.16 27.0839 338.313L68.5987 316.077C63.0019 305.628 58.3978 294.58 54.9065 283.057ZM88.5246 345.842L52.1367 375.74C61.6882 387.365 72.3588 398.035 83.984 407.587L113.881 371.199C104.626 363.595 96.129 355.098 88.5246 345.842Z" fill="url(#paint0_radial_968_35)"/>
<defs>
<radialGradient id="paint0_radial_968_35" cx="0" cy="0" r="1" gradientUnits="userSpaceOnUse" gradientTransform="translate(346.408 63.6047) rotate(83.4917) scale(295.461 558.541)">
<stop offset="0.133874" stop-color="#FEE600"/>
<stop offset="0.972953" stop-color="#FF6800"/>
</radialGradient>
</defs>
</svg>
